<svg xmlns="http://www.w3.org/2000/svg" xmlns:xlink="http://www.w3.org/1999/xlink" width="500" zoomAndPan="magnify" viewBox="0 0 375 374.999991" height="500" preserveAspectRatio="xMidYMid meet" version="1.0"><defs><clipPath id="a3d3d9a02a"><path d="M 7 7 L 366 7 L 366 368.058594 L 7 368.058594 Z M 7 7 " clip-rule="nonzero"/></clipPath></defs><g clip-path="url(#a3d3d9a02a)"><path fill="#000000" d="M 186.398438 7.105469 C 87.761719 7.105469 7.648438 88.304688 7.648438 188.21875 C 7.648438 288.128906 87.941406 369.332031 186.398438 369.332031 C 284.859375 369.332031 365.152344 288.128906 365.152344 188.21875 C 365.152344 88.304688 285.039062 7.105469 186.398438 7.105469 Z M 186.398438 333.179688 C 107.925781 333.179688 43.980469 268.148438 43.980469 188.398438 C 43.980469 108.652344 107.925781 43.617188 186.398438 43.617188 C 264.875 43.617188 328.820312 108.652344 328.820312 188.398438 C 328.820312 268.148438 264.875 333.179688 186.398438 333.179688 Z M 204.566406 170.234375 L 275.957031 170.234375 L 275.957031 206.566406 L 204.566406 206.566406 L 204.566406 277.957031 L 168.234375 277.957031 L 168.234375 206.566406 L 96.84375 206.566406 L 96.84375 170.234375 L 168.234375 170.234375 L 168.234375 98.839844 L 204.566406 98.839844 Z M 204.566406 170.234375 " fill-opacity="1" fill-rule="nonzero"/></g></svg>