<svg xmlns="http://www.w3.org/2000/svg" xmlns:xlink="http://www.w3.org/1999/xlink" width="500" zoomAndPan="magnify" viewBox="0 0 375 374.999991" height="500" preserveAspectRatio="xMidYMid meet" version="1.0"><defs><clipPath id="81d824bde5"><path d="M 4 72 L 300 72 L 300 368.25 L 4 368.25 Z M 4 72 " clip-rule="nonzero"/></clipPath></defs><g clip-path="url(#81d824bde5)"><path fill="#000000" d="M 216.761719 367.773438 C 219.476562 368.046875 222.191406 368.113281 224.839844 368.113281 C 246.699219 368.113281 267.816406 359.347656 283.835938 343.316406 L 289.609375 337.539062 C 297.617188 329.523438 301.082031 318.039062 298.773438 306.898438 C 296.464844 295.753906 288.726562 286.652344 278.203125 282.4375 L 235.5 265.519531 C 223.007812 260.5625 208.816406 263.550781 199.3125 273.0625 L 180.371094 292.019531 C 176.707031 295.6875 171.207031 296.773438 166.453125 294.734375 C 147.785156 286.855469 130.945312 275.710938 116.351562 261.785156 C 99.785156 245.953125 86.75 227.199219 77.71875 205.933594 C 75.75 201.179688 76.835938 195.742188 80.503906 192.074219 L 99.445312 173.117188 C 108.949219 163.605469 111.871094 149.339844 106.980469 136.835938 L 90.078125 94.167969 C 85.867188 83.636719 76.769531 75.890625 65.636719 73.582031 C 54.5 71.339844 43.027344 74.738281 34.949219 82.753906 L 29.179688 88.597656 C 11.253906 106.535156 2.429688 131.0625 5.078125 155.929688 C 9.355469 197.101562 25.242188 256.347656 76.632812 305.0625 C 124.226562 350.042969 179.082031 363.96875 216.761719 367.773438 Z M 31.148438 166.527344 C 33.046875 166.324219 34.675781 167.683594 34.882812 169.515625 C 36.035156 181.203125 38.480469 192.753906 42.144531 203.894531 C 46.355469 216.535156 52.125 228.695312 59.320312 239.90625 C 60.339844 241.535156 59.863281 243.644531 58.304688 244.59375 C 57.761719 245 57.082031 245.136719 56.46875 245.136719 C 55.316406 245.136719 54.230469 244.59375 53.617188 243.574219 C 46.082031 231.890625 40.039062 219.183594 35.695312 206.003906 C 31.894531 194.453125 29.3125 182.359375 28.09375 170.195312 C 27.957031 168.363281 29.3125 166.664062 31.148438 166.527344 Z M 68.691406 253.085938 C 69.097656 253.289062 69.503906 253.496094 69.777344 253.835938 C 70.457031 254.445312 70.796875 255.328125 70.796875 256.210938 C 70.796875 256.6875 70.726562 257.09375 70.523438 257.503906 C 70.386719 257.980469 70.117188 258.320312 69.777344 258.660156 C 69.167969 259.269531 68.351562 259.609375 67.402344 259.609375 C 66.925781 259.609375 66.519531 259.542969 66.109375 259.335938 C 65.703125 259.203125 65.296875 258.929688 65.023438 258.660156 C 64.683594 258.320312 64.414062 257.980469 64.277344 257.503906 C 64.074219 257.09375 64.007812 256.6875 64.007812 256.210938 C 64.007812 255.328125 64.347656 254.445312 65.023438 253.835938 C 65.976562 252.882812 67.46875 252.613281 68.691406 253.085938 Z M 68.691406 253.085938 " fill-opacity="1" fill-rule="nonzero"/></g><path fill="#000000" d="M 305.628906 47.96875 C 305.496094 46.949219 305.019531 45.996094 304.203125 45.453125 C 288.792969 34.71875 270.734375 29.011719 251.929688 29.011719 C 201.351562 29.011719 160.277344 70.117188 160.277344 120.734375 C 160.277344 139.554688 165.980469 157.628906 176.707031 172.980469 C 177.25 173.867188 178.199219 174.339844 179.148438 174.476562 L 179.488281 174.476562 C 180.371094 174.476562 181.253906 174.136719 181.863281 173.457031 L 304.613281 50.617188 C 305.359375 49.9375 305.699219 48.917969 305.628906 47.96875 Z M 180.03125 165.710938 C 171.546875 152.261719 167.066406 136.769531 167.066406 120.734375 C 167.066406 73.921875 205.152344 35.804688 251.929688 35.804688 C 267.949219 35.804688 283.429688 40.289062 296.871094 48.78125 Z M 180.03125 165.710938 " fill-opacity="1" fill-rule="nonzero"/><path fill="#000000" d="M 324.707031 66.992188 C 323.6875 66.921875 322.738281 67.261719 322.058594 67.941406 L 199.175781 190.917969 C 198.5 191.597656 198.089844 192.617188 198.226562 193.570312 C 198.292969 194.589844 198.835938 195.472656 199.652344 196.082031 C 215.0625 206.75 233.121094 212.390625 251.929688 212.390625 C 302.4375 212.390625 343.511719 171.285156 343.511719 120.734375 C 343.511719 101.914062 337.878906 83.839844 327.21875 68.417969 C 326.609375 67.601562 325.726562 67.058594 324.707031 66.992188 Z M 251.929688 205.59375 C 235.90625 205.59375 220.425781 201.179688 206.917969 192.753906 L 323.894531 75.6875 C 332.3125 89.207031 336.722656 104.699219 336.722656 120.734375 C 336.722656 167.546875 298.707031 205.59375 251.929688 205.59375 Z M 251.929688 205.59375 " fill-opacity="1" fill-rule="nonzero"/><path fill="#000000" d="M 251.929688 0.136719 C 185.464844 0.136719 131.421875 54.21875 131.421875 120.734375 C 131.421875 187.25 185.464844 241.332031 251.929688 241.332031 C 318.394531 241.332031 372.433594 187.25 372.433594 120.734375 C 372.433594 54.21875 318.324219 0.136719 251.929688 0.136719 Z M 251.929688 234.539062 C 189.199219 234.539062 138.210938 183.445312 138.210938 120.734375 C 138.210938 58.023438 189.199219 6.929688 251.929688 6.929688 C 314.660156 6.929688 365.644531 57.957031 365.644531 120.734375 C 365.644531 183.511719 314.589844 234.539062 251.929688 234.539062 Z M 251.929688 234.539062 " fill-opacity="1" fill-rule="nonzero"/></svg>