<svg xmlns="http://www.w3.org/2000/svg" xmlns:xlink="http://www.w3.org/1999/xlink" width="500" zoomAndPan="magnify" viewBox="0 0 375 374.999991" height="500" preserveAspectRatio="xMidYMid meet" version="1.0"><defs><clipPath id="3273612edd"><path d="M 10.738281 47.332031 L 363.988281 47.332031 L 363.988281 169 L 10.738281 169 Z M 10.738281 47.332031 " clip-rule="nonzero"/></clipPath></defs><path fill="#201e1b" d="M 65.996094 117.507812 C 65.195312 116.695312 64.230469 116.046875 63.265625 115.5625 C 62.140625 115.234375 61.019531 114.910156 59.730469 114.910156 L 52.664062 114.910156 L 52.664062 131.3125 L 59.730469 131.3125 C 61.015625 131.3125 62.140625 130.988281 63.105469 130.5 C 64.070312 130.015625 65.035156 129.527344 65.675781 128.714844 C 66.476562 127.902344 67.121094 127.089844 67.441406 126.117188 C 67.925781 125.140625 68.246094 124.167969 68.246094 123.03125 C 68.246094 122.054688 67.925781 121.082031 67.601562 120.105469 C 67.28125 119.132812 66.640625 118.160156 65.996094 117.507812 Z M 65.996094 117.507812 " fill-opacity="1" fill-rule="evenodd"/><path fill="#201e1b" d="M 64.710938 104.839844 C 65.835938 103.703125 66.316406 102.242188 66.316406 100.457031 C 66.316406 98.832031 65.835938 97.371094 64.710938 96.234375 C 63.585938 95.097656 62.140625 94.609375 60.214844 94.609375 L 52.664062 94.609375 L 52.664062 106.464844 L 60.214844 106.464844 C 62.140625 106.464844 63.746094 105.980469 64.710938 104.839844 Z M 64.710938 104.839844 " fill-opacity="1" fill-rule="evenodd"/><path fill="#201e1b" d="M 147.121094 98.996094 C 145.355469 97.207031 143.265625 95.910156 140.855469 94.773438 C 138.609375 93.800781 136.039062 93.3125 133.304688 93.3125 C 130.574219 93.3125 128.167969 93.796875 125.757812 94.773438 C 123.34375 95.910156 121.257812 97.207031 119.652344 98.996094 C 117.886719 100.78125 116.441406 102.890625 115.476562 105.328125 C 114.511719 107.601562 114.03125 110.203125 114.03125 112.960938 C 114.03125 115.5625 114.511719 118.160156 115.476562 120.429688 C 116.441406 122.867188 117.886719 124.980469 119.652344 126.605469 C 121.257812 128.390625 123.347656 129.851562 125.757812 130.824219 C 128.167969 131.964844 130.574219 132.449219 133.304688 132.449219 C 136.039062 132.449219 138.609375 131.964844 140.855469 130.824219 C 143.265625 129.851562 145.355469 128.390625 147.121094 126.605469 C 148.886719 124.980469 150.332031 122.867188 151.296875 120.429688 C 152.421875 118.160156 152.90625 115.558594 152.90625 112.960938 C 152.90625 110.203125 152.421875 107.601562 151.296875 105.328125 C 150.332031 102.890625 148.886719 100.78125 147.121094 98.996094 Z M 147.121094 98.996094 " fill-opacity="1" fill-rule="evenodd"/><g clip-path="url(#3273612edd)"><path fill="#201e1b" d="M 335.875 47.351562 L 38.847656 47.351562 C 23.265625 47.351562 10.738281 60.179688 10.738281 75.773438 L 10.738281 140.082031 C 10.738281 155.671875 23.265625 168.503906 38.847656 168.503906 L 108.566406 168.503906 L 113.386719 160.058594 L 113.707031 159.40625 L 114.027344 159.082031 L 114.1875 158.921875 L 114.1875 158.757812 L 114.347656 158.597656 L 114.511719 158.109375 L 114.671875 157.949219 L 114.992188 157.621094 L 115.152344 157.296875 L 115.472656 156.972656 L 115.472656 156.8125 L 115.792969 156.484375 L 115.953125 156.160156 L 116.4375 155.675781 L 116.917969 155.1875 L 116.917969 155.023438 L 117.398438 154.699219 L 117.722656 154.214844 L 118.042969 153.886719 L 118.203125 153.726562 L 118.523438 153.402344 L 118.84375 153.238281 L 119.003906 153.074219 L 119.488281 152.589844 L 119.808594 152.265625 L 119.96875 152.101562 L 120.128906 152.101562 L 120.609375 151.613281 L 121.09375 151.289062 L 121.574219 150.964844 L 121.734375 150.800781 L 121.894531 150.640625 L 122.214844 150.476562 L 122.699219 149.992188 L 123.019531 149.992188 L 123.5 149.5 L 123.660156 149.5 L 123.984375 149.175781 L 124.144531 149.175781 L 124.304688 149.015625 L 124.785156 148.851562 L 125.265625 148.527344 L 125.910156 148.367188 L 125.910156 148.203125 L 126.390625 148.042969 L 126.875 147.878906 L 127.035156 147.71875 L 127.355469 147.554688 L 127.675781 147.554688 L 127.996094 147.230469 L 128.160156 147.230469 L 128.640625 147.070312 L 128.800781 147.070312 L 129.28125 146.90625 L 129.925781 146.582031 L 130.40625 146.421875 L 130.566406 146.421875 L 131.046875 146.257812 L 131.53125 146.257812 L 131.691406 146.09375 L 132.171875 146.09375 L 132.332031 145.933594 C 133.136719 145.769531 133.941406 145.609375 134.742188 145.609375 L 135.386719 145.445312 L 136.027344 145.445312 C 136.832031 145.285156 137.636719 145.285156 138.4375 145.285156 C 140.042969 145.285156 141.8125 145.285156 143.417969 145.609375 C 145.183594 145.933594 146.792969 146.257812 148.398438 146.910156 L 163.335938 120.761719 C 163.980469 119.460938 164.785156 118.164062 165.746094 116.863281 C 165.585938 115.566406 165.425781 114.265625 165.425781 112.964844 C 165.425781 109.066406 166.230469 105.332031 167.675781 101.921875 C 169.121094 98.511719 171.046875 95.589844 173.617188 92.992188 C 176.027344 90.554688 178.917969 88.445312 182.292969 86.984375 C 185.664062 85.519531 189.359375 84.871094 193.214844 84.871094 C 197.230469 84.871094 201.085938 85.683594 204.621094 87.308594 C 208.15625 89.09375 211.207031 91.367188 213.777344 94.128906 C 214.097656 94.617188 214.421875 94.941406 214.582031 95.265625 C 214.902344 95.753906 214.902344 96.238281 214.902344 96.890625 C 214.902344 98.351562 214.582031 99.324219 213.777344 100.136719 C 212.976562 100.789062 212.011719 101.277344 210.726562 101.277344 C 209.761719 101.277344 209.121094 101.113281 208.636719 100.789062 C 208.316406 100.464844 207.835938 100.136719 207.675781 99.8125 C 205.746094 97.703125 203.65625 96.078125 201.25 94.941406 C 198.839844 93.804688 196.109375 93.316406 193.214844 93.316406 C 190.484375 93.316406 187.914062 93.804688 185.503906 94.78125 C 183.257812 95.917969 181.167969 97.214844 179.402344 99.003906 C 177.632812 100.789062 176.347656 102.898438 175.226562 105.335938 C 175.226562 105.660156 175.0625 105.984375 174.902344 106.472656 C 178.597656 103.0625 182.777344 100.300781 187.273438 98.027344 L 187.433594 98.027344 C 205.105469 90.070312 216.1875 117.191406 200.285156 125.960938 C 197.234375 127.585938 194.503906 129.695312 192.253906 132.457031 C 192.574219 132.457031 192.894531 132.457031 193.214844 132.457031 C 196.109375 132.457031 198.679688 131.96875 201.089844 130.832031 C 203.5 129.859375 205.746094 128.234375 207.515625 126.125 C 207.835938 125.636719 208.316406 125.3125 208.800781 124.988281 C 209.441406 124.660156 209.925781 124.5 210.726562 124.5 C 211.851562 124.5 212.976562 124.824219 213.777344 125.636719 C 214.582031 126.285156 214.902344 127.261719 214.902344 128.398438 C 214.902344 129.859375 214.582031 130.996094 213.617188 131.96875 C 211.046875 134.730469 207.996094 136.84375 204.621094 138.464844 C 201.089844 140.089844 197.234375 140.902344 193.214844 140.902344 C 191.128906 140.902344 189.199219 140.738281 187.273438 140.25 L 175.0625 161.851562 L 184.542969 167.375 L 186.628906 168.511719 L 335.859375 168.511719 C 351.28125 168.511719 363.96875 155.679688 363.96875 140.089844 L 363.96875 75.773438 C 363.988281 60.179688 351.296875 47.351562 335.875 47.351562 Z M 75.472656 129.527344 C 74.671875 131.476562 73.707031 133.097656 72.261719 134.722656 C 70.816406 136.183594 69.050781 137.320312 66.960938 138.296875 C 64.871094 139.269531 62.460938 139.757812 59.730469 139.757812 L 48.488281 139.757812 C 47.203125 139.757812 46.238281 139.269531 45.433594 138.621094 C 44.632812 137.808594 44.3125 136.835938 44.3125 135.371094 L 44.3125 90.386719 C 44.3125 89.089844 44.632812 87.953125 45.433594 87.300781 C 46.238281 86.488281 47.203125 86.164062 48.488281 86.164062 L 60.214844 86.164062 C 62.460938 86.164062 64.390625 86.488281 66.15625 87.140625 C 67.925781 87.953125 69.53125 88.925781 70.816406 90.0625 C 72.101562 91.199219 73.066406 92.660156 73.707031 94.285156 C 74.511719 95.910156 74.832031 97.695312 74.832031 99.480469 C 74.832031 104.839844 72.742188 108.738281 68.886719 110.847656 C 71.136719 111.824219 72.90625 113.449219 74.351562 115.722656 C 75.796875 117.996094 76.597656 120.59375 76.597656 123.519531 C 76.597656 125.628906 76.117188 127.578125 75.472656 129.527344 Z M 109.210938 138.621094 C 108.566406 139.273438 107.441406 139.757812 106.316406 139.757812 L 85.273438 139.757812 C 83.828125 139.757812 82.863281 139.273438 82.0625 138.621094 C 81.417969 137.808594 80.9375 136.835938 80.9375 135.375 L 80.9375 89.902344 C 80.9375 88.601562 81.417969 87.628906 82.222656 86.976562 C 83.023438 86.164062 83.988281 85.679688 85.113281 85.679688 C 86.398438 85.679688 87.523438 86.164062 88.164062 86.976562 C 88.96875 87.628906 89.289062 88.601562 89.289062 89.902344 L 89.289062 131.3125 L 106.316406 131.3125 C 107.441406 131.3125 108.566406 131.636719 109.210938 132.449219 C 110.011719 133.101562 110.335938 134.238281 110.335938 135.375 C 110.335938 136.835938 110.011719 137.808594 109.210938 138.621094 Z M 159.007812 123.84375 C 157.5625 127.253906 155.472656 130.175781 153.066406 132.773438 C 150.492188 135.210938 147.601562 137.320312 144.230469 138.785156 C 140.855469 140.082031 137.160156 140.894531 133.304688 140.894531 C 129.449219 140.894531 125.917969 140.082031 122.542969 138.785156 C 119.167969 137.320312 116.277344 135.210938 113.707031 132.773438 C 111.296875 130.175781 109.210938 127.253906 107.765625 123.84375 C 106.320312 120.429688 105.675781 116.859375 105.675781 112.960938 C 105.675781 109.0625 106.320312 105.328125 107.765625 101.917969 C 109.210938 98.507812 111.300781 95.585938 113.707031 92.988281 C 116.277344 90.550781 119.171875 88.441406 122.542969 86.976562 C 125.917969 85.515625 129.449219 84.867188 133.304688 84.867188 C 137.160156 84.867188 140.855469 85.515625 144.230469 86.976562 C 147.605469 88.441406 150.492188 90.550781 153.066406 92.988281 C 155.472656 95.585938 157.5625 98.507812 159.007812 101.917969 C 160.453125 105.328125 161.097656 109.0625 161.097656 112.960938 C 161.097656 116.859375 160.453125 120.433594 159.007812 123.84375 Z M 250.253906 133.75 C 250.734375 134.5625 250.894531 135.375 250.894531 136.023438 C 250.894531 137.320312 250.414062 138.296875 249.609375 138.945312 C 248.808594 139.757812 247.683594 140.082031 246.558594 140.082031 C 245.917969 140.082031 245.113281 139.921875 244.46875 139.433594 C 243.667969 139.109375 243.183594 138.457031 242.703125 137.648438 L 232.261719 115.398438 L 229.050781 115.398438 L 229.050781 135.863281 C 229.050781 137.160156 228.566406 138.136719 227.925781 138.945312 C 227.121094 139.757812 226.15625 140.082031 224.710938 140.082031 C 223.585938 140.082031 222.625 139.757812 221.820312 138.945312 C 221.015625 138.136719 220.695312 137.160156 220.695312 135.863281 L 220.695312 89.902344 C 220.695312 88.601562 221.015625 87.628906 221.820312 86.976562 C 222.625 86.164062 223.585938 85.679688 224.710938 85.679688 C 226.15625 85.679688 227.121094 86.164062 227.925781 86.976562 C 228.566406 87.628906 229.050781 88.601562 229.050781 89.902344 L 229.050781 106.953125 L 232.421875 106.953125 L 242.863281 87.953125 C 243.347656 87.140625 243.828125 86.488281 244.632812 86.164062 C 245.273438 85.839844 245.917969 85.679688 246.558594 85.679688 C 247.683594 85.679688 248.648438 86.164062 249.609375 86.976562 C 250.414062 87.789062 250.894531 88.765625 250.894531 89.902344 C 250.894531 90.710938 250.574219 91.523438 250.253906 92.175781 L 239.492188 111.339844 Z M 283.664062 138.621094 C 283.023438 139.273438 281.898438 139.757812 280.773438 139.757812 L 259.570312 139.757812 C 258.445312 139.757812 257.480469 139.273438 256.675781 138.621094 C 255.875 137.808594 255.394531 136.835938 255.394531 135.375 L 255.394531 90.386719 C 255.394531 89.089844 255.875 87.953125 256.675781 87.300781 C 257.480469 86.488281 258.445312 86.164062 259.570312 86.164062 L 280.453125 86.164062 C 281.578125 86.164062 282.542969 86.488281 283.34375 87.300781 C 284.148438 87.953125 284.46875 89.089844 284.46875 90.386719 C 284.46875 91.523438 284.148438 92.660156 283.34375 93.472656 C 282.542969 94.125 281.578125 94.609375 280.453125 94.609375 L 263.746094 94.609375 L 263.746094 106.953125 L 279.8125 106.953125 C 281.097656 106.953125 282.058594 107.277344 282.863281 108.089844 C 283.664062 108.902344 283.988281 109.875 283.988281 111.175781 C 283.988281 112.472656 283.664062 113.449219 282.863281 114.261719 C 282.058594 114.910156 281.097656 115.398438 279.8125 115.398438 L 263.746094 115.398438 L 263.746094 131.3125 L 280.773438 131.3125 C 281.898438 131.3125 283.023438 131.636719 283.664062 132.449219 C 284.46875 133.101562 284.789062 134.238281 284.789062 135.375 C 284.789062 136.835938 284.46875 137.808594 283.664062 138.621094 Z M 328.164062 123.679688 C 326.71875 127.089844 324.789062 129.851562 322.21875 132.125 C 319.648438 134.5625 316.757812 136.347656 313.382812 137.648438 C 309.851562 139.109375 306.316406 139.757812 302.460938 139.757812 L 293.785156 139.757812 C 292.503906 139.757812 291.539062 139.269531 290.734375 138.621094 C 289.929688 137.808594 289.609375 136.835938 289.609375 135.371094 L 289.609375 90.386719 C 289.609375 89.089844 289.929688 87.953125 290.734375 87.300781 C 291.539062 86.488281 292.503906 86.164062 293.785156 86.164062 L 302.460938 86.164062 C 306.316406 86.164062 309.851562 86.816406 313.382812 88.113281 C 316.757812 89.414062 319.648438 91.199219 322.21875 93.636719 C 324.789062 95.910156 326.71875 98.832031 328.164062 102.082031 C 329.609375 105.328125 330.410156 109.0625 330.410156 112.960938 C 330.410156 116.859375 329.609375 120.433594 328.164062 123.679688 Z M 328.164062 123.679688 " fill-opacity="1" fill-rule="evenodd"/></g><path fill="#201e1b" d="M 316.277344 99.808594 C 314.507812 98.183594 312.417969 96.882812 310.011719 95.910156 C 307.601562 95.097656 305.191406 94.609375 302.460938 94.609375 L 297.960938 94.609375 L 297.960938 131.3125 L 302.460938 131.3125 C 305.191406 131.3125 307.601562 130.824219 310.011719 129.851562 C 312.417969 129.039062 314.507812 127.742188 316.277344 126.117188 C 318.042969 124.492188 319.488281 122.542969 320.453125 120.269531 C 321.414062 118.160156 322.058594 115.5625 322.058594 112.960938 C 322.058594 110.203125 321.414062 107.765625 320.453125 105.492188 C 319.488281 103.378906 318.042969 101.433594 316.277344 99.808594 Z M 316.277344 99.808594 " fill-opacity="1" fill-rule="evenodd"/><path fill="#201e1b" d="M 185.511719 133.75 C 188.566406 128.390625 192.902344 124.332031 198.042969 121.570312 C 208.484375 115.882812 201.578125 96.882812 189.371094 102.40625 C 180.535156 106.789062 172.824219 113.9375 167.519531 123.191406 L 152.902344 148.851562 L 153.386719 149.175781 L 170.894531 159.40625 Z M 185.511719 133.75 " fill-opacity="1" fill-rule="evenodd"/><path fill="#201e1b" d="M 225.351562 191.238281 L 242.863281 201.308594 L 243.34375 201.632812 L 258.121094 176.136719 C 258.605469 175.164062 259.085938 174.351562 259.570312 173.375 C 251.539062 173.375 243.503906 173.375 235.472656 173.375 Z M 225.351562 191.238281 " fill-opacity="1" fill-rule="evenodd"/><path fill="#201e1b" d="M 240.453125 205.53125 L 150.976562 153.398438 C 139.410156 146.578125 124.308594 150.640625 117.5625 162.492188 L 85.113281 219.335938 C 78.367188 231.027344 82.382812 246.292969 94.109375 253.113281 L 183.585938 305.246094 C 195.152344 312.066406 210.25 308.007812 217 296.152344 L 249.449219 239.308594 C 256.035156 227.617188 252.019531 212.351562 240.453125 205.53125 Z M 184.066406 213 L 177.480469 224.695312 C 182.300781 230.539062 183.425781 239.3125 179.25 246.292969 C 174.109375 255.550781 162.542969 258.636719 153.546875 253.277344 C 144.550781 248.082031 141.496094 236.386719 146.640625 227.292969 C 150.65625 220.148438 158.527344 216.738281 166.074219 218.035156 L 172.824219 206.503906 C 176.195312 200.496094 187.441406 207.15625 184.066406 213 Z M 184.066406 213 " fill-opacity="1" fill-rule="evenodd"/></svg>