<svg xmlns="http://www.w3.org/2000/svg" xmlns:xlink="http://www.w3.org/1999/xlink" width="500" zoomAndPan="magnify" viewBox="0 0 375 374.999991" height="500" preserveAspectRatio="xMidYMid meet" version="1.0"><defs><clipPath id="f879d318be"><path d="M 0 6 L 367.5 6 L 367.5 363 L 0 363 Z M 0 6 " clip-rule="nonzero"/></clipPath></defs><g clip-path="url(#f879d318be)"><path fill="#000000" d="M 366.242188 168.351562 C 364.929688 156.890625 363.136719 145.542969 359.859375 134.46875 C 358.347656 129.351562 356.566406 124.316406 354.523438 119.386719 C 351.488281 112.066406 348.394531 104.820312 344.574219 97.871094 C 341.441406 92.175781 337.941406 86.6875 334.101562 81.445312 C 328.800781 74.21875 323.234375 67.136719 317.070312 60.625 C 309.53125 52.664062 301.125 45.804688 292.375 39.214844 C 284.480469 33.273438 275.988281 28.15625 267.042969 23.957031 C 265.246094 22.816406 263.371094 21.980469 261.414062 21.429688 C 253.402344 17.925781 245.191406 14.839844 236.746094 12.574219 C 226.179688 9.742188 215.289062 8.136719 204.417969 7.035156 C 184.785156 5.046875 164.820312 6.765625 145.519531 10.664062 C 136.957031 12.394531 128.523438 14.761719 120.316406 17.746094 C 110.113281 21.457031 100.023438 25.796875 90.484375 31.007812 C 80.871094 36.265625 72.148438 42.613281 63.523438 49.347656 C 56.714844 54.664062 50.363281 60.566406 44.613281 67.011719 C 36.296875 76.332031 28.695312 86.546875 22.644531 97.492188 C 19.011719 104.0625 16.09375 110.929688 13.207031 117.859375 C 11.390625 122.214844 9.773438 126.65625 8.378906 131.164062 C 4.3125 144.316406 2.195312 158.050781 0.941406 171.738281 C -0.0195312 182.203125 0.046875 192.777344 1.035156 203.238281 C 2.765625 221.535156 6.21875 239.589844 13.332031 256.601562 C 17.839844 267.390625 22.6875 277.796875 29.308594 287.46875 C 32.117188 291.570312 35.082031 295.589844 38.207031 299.488281 C 38.675781 300.609375 39.242188 301.707031 39.917969 302.769531 C 41.363281 304.644531 42.8125 306.515625 44.257812 308.386719 C 46.097656 310.214844 48.117188 311.730469 50.304688 312.960938 C 51.394531 314.035156 52.503906 315.09375 53.632812 316.128906 C 62.527344 324.296875 72.378906 331.734375 82.847656 337.78125 C 92.546875 343.386719 102.996094 347.890625 113.550781 351.597656 C 129.4375 357.175781 146.21875 359.914062 162.949219 361.378906 C 172.464844 362.210938 182.105469 362.589844 191.65625 362.453125 C 198.527344 362.351562 205.394531 361.898438 212.210938 361.023438 C 222.84375 359.660156 233.34375 358.0625 243.65625 355.070312 C 254.910156 351.800781 265.945312 347.28125 276.335938 341.882812 C 287.804688 335.921875 298.355469 328.230469 308.15625 319.839844 C 317.605469 311.75 325.445312 302.421875 332.9375 292.53125 C 338.394531 285.324219 343.144531 277.59375 347.15625 269.496094 C 354.609375 254.433594 360.425781 238.457031 363.546875 221.925781 C 365.621094 210.957031 367.058594 199.722656 367.246094 188.542969 C 367.359375 181.800781 367.011719 175.050781 366.242188 168.351562 Z M 56.496094 171.109375 C 56.585938 170.171875 56.691406 169.238281 56.796875 168.304688 C 58.53125 157.058594 61.441406 146.027344 65.601562 135.433594 C 69.515625 126.828125 74.269531 118.636719 79.839844 110.996094 C 85.996094 103.453125 92.933594 96.582031 100.480469 90.429688 C 109.734375 83.621094 119.714844 77.859375 130.1875 73.148438 C 142.503906 68.253906 155.351562 64.78125 168.445312 62.753906 C 180.84375 61.394531 193.367188 61.339844 205.769531 62.6875 C 216.652344 64.402344 227.339844 67.226562 237.601562 71.242188 C 238.074219 71.457031 238.558594 71.660156 239.03125 71.878906 C 240.394531 72.746094 241.804688 73.433594 243.261719 73.960938 C 246.824219 75.777344 250.300781 77.746094 253.695312 79.855469 C 246.835938 86.328125 239.988281 92.8125 233.144531 99.308594 C 219.84375 111.9375 206.574219 124.601562 193.339844 137.300781 C 180.160156 149.945312 167.011719 162.628906 153.902344 175.347656 C 141.082031 187.777344 128.339844 200.285156 115.53125 212.726562 C 103.8125 224.117188 91.914062 235.363281 79.175781 245.621094 C 78.496094 246.171875 77.800781 246.703125 77.117188 247.246094 C 75.402344 248.53125 73.675781 249.789062 71.929688 251.03125 C 69.652344 247.105469 67.570312 243.066406 65.683594 238.929688 C 61.515625 228.335938 58.601562 217.292969 56.835938 206.050781 C 55.546875 194.457031 55.382812 182.71875 56.496094 171.109375 Z M 311.226562 198.726562 C 311.121094 199.917969 311.003906 201.105469 310.871094 202.292969 C 309.414062 211.527344 307.179688 220.636719 304.164062 229.484375 C 303.34375 231.890625 302.445312 234.269531 301.507812 236.632812 C 297.34375 245.832031 292.273438 254.589844 286.316406 262.742188 C 280.324219 270.078125 273.609375 276.785156 266.277344 282.78125 C 258.589844 288.398438 250.363281 293.214844 241.703125 297.164062 C 231.269531 301.257812 220.40625 304.117188 209.335938 305.859375 C 195.449219 307.371094 181.429688 307.160156 167.5 306.230469 C 164.328125 306.019531 161.160156 305.734375 157.996094 305.378906 C 146.003906 303.535156 134.210938 300.488281 122.917969 296.042969 C 119.058594 294.285156 115.285156 292.351562 111.605469 290.253906 C 117.398438 285.765625 123.078125 281.128906 128.601562 276.324219 C 143.03125 263.757812 156.570312 250.210938 170.257812 236.851562 C 185.277344 222.199219 200.339844 207.585938 215.445312 193.023438 C 230.609375 178.40625 245.8125 163.839844 261.066406 149.316406 C 271.605469 139.277344 282.179688 129.269531 292.761719 119.277344 C 296.191406 124.828125 299.261719 130.597656 301.957031 136.554688 C 306.125 147.15625 309.097656 158.191406 310.863281 169.449219 C 311.90625 179.167969 312.066406 188.980469 311.226562 198.726562 Z M 311.226562 198.726562 " fill-opacity="1" fill-rule="nonzero"/></g></svg>