<svg xmlns="http://www.w3.org/2000/svg" xmlns:xlink="http://www.w3.org/1999/xlink" width="500" zoomAndPan="magnify" viewBox="0 0 375 374.999991" height="500" preserveAspectRatio="xMidYMid meet" version="1.0"><path fill="#3ab449" d="M 374.972656 187.488281 C 374.972656 190.554688 374.898438 193.621094 374.75 196.6875 C 374.597656 199.753906 374.371094 202.8125 374.070312 205.863281 C 373.769531 208.917969 373.394531 211.964844 372.945312 215 C 372.496094 218.035156 371.96875 221.054688 371.371094 224.066406 C 370.773438 227.074219 370.101562 230.066406 369.355469 233.042969 C 368.609375 236.019531 367.792969 238.976562 366.902344 241.914062 C 366.011719 244.847656 365.046875 247.761719 364.015625 250.652344 C 362.980469 253.539062 361.878906 256.402344 360.703125 259.238281 C 359.527344 262.070312 358.285156 264.875 356.972656 267.648438 C 355.660156 270.421875 354.28125 273.164062 352.835938 275.871094 C 351.390625 278.574219 349.878906 281.246094 348.300781 283.875 C 346.722656 286.507812 345.082031 289.097656 343.378906 291.652344 C 341.671875 294.203125 339.90625 296.710938 338.078125 299.175781 C 336.25 301.640625 334.363281 304.058594 332.417969 306.429688 C 330.46875 308.800781 328.464844 311.125 326.40625 313.398438 C 324.34375 315.671875 322.230469 317.890625 320.0625 320.0625 C 317.890625 322.230469 315.667969 324.347656 313.394531 326.40625 C 311.121094 328.46875 308.800781 330.472656 306.429688 332.417969 C 304.054688 334.363281 301.636719 336.25 299.171875 338.078125 C 296.707031 339.90625 294.199219 341.671875 291.648438 343.378906 C 289.097656 345.082031 286.507812 346.722656 283.875 348.300781 C 281.242188 349.878906 278.574219 351.390625 275.867188 352.835938 C 273.160156 354.285156 270.421875 355.664062 267.648438 356.976562 C 264.875 358.285156 262.070312 359.53125 259.234375 360.703125 C 256.398438 361.878906 253.539062 362.980469 250.648438 364.015625 C 247.761719 365.050781 244.847656 366.011719 241.910156 366.902344 C 238.976562 367.792969 236.019531 368.613281 233.042969 369.355469 C 230.066406 370.101562 227.074219 370.773438 224.0625 371.375 C 221.054688 371.972656 218.03125 372.496094 214.996094 372.945312 C 211.960938 373.398438 208.917969 373.773438 205.863281 374.074219 C 202.808594 374.375 199.75 374.597656 196.6875 374.75 C 193.621094 374.902344 190.554688 374.976562 187.488281 374.976562 C 184.417969 374.976562 181.351562 374.902344 178.285156 374.75 C 175.222656 374.597656 172.164062 374.375 169.109375 374.074219 C 166.054688 373.773438 163.011719 373.398438 159.976562 372.945312 C 156.941406 372.496094 153.917969 371.972656 150.910156 371.375 C 147.898438 370.773438 144.90625 370.101562 141.929688 369.355469 C 138.953125 368.613281 136 367.792969 133.0625 366.902344 C 130.125 366.011719 127.214844 365.050781 124.324219 364.015625 C 121.433594 362.980469 118.574219 361.878906 115.738281 360.703125 C 112.902344 359.53125 110.097656 358.285156 107.324219 356.976562 C 104.550781 355.664062 101.8125 354.285156 99.105469 352.835938 C 96.398438 351.390625 93.730469 349.878906 91.097656 348.300781 C 88.464844 346.722656 85.875 345.082031 83.324219 343.378906 C 80.773438 341.671875 78.265625 339.90625 75.800781 338.078125 C 73.335938 336.25 70.917969 334.363281 68.546875 332.417969 C 66.171875 330.472656 63.851562 328.46875 61.578125 326.40625 C 59.304688 324.347656 57.082031 322.230469 54.914062 320.0625 C 52.742188 317.890625 50.628906 315.671875 48.566406 313.398438 C 46.507812 311.125 44.503906 308.800781 42.554688 306.429688 C 40.609375 304.058594 38.722656 301.640625 36.894531 299.175781 C 35.066406 296.710938 33.300781 294.203125 31.597656 291.652344 C 29.890625 289.097656 28.25 286.507812 26.671875 283.875 C 25.09375 281.246094 23.582031 278.574219 22.136719 275.871094 C 20.691406 273.164062 19.3125 270.421875 18 267.648438 C 16.6875 264.875 15.445312 262.070312 14.269531 259.238281 C 13.097656 256.402344 11.992188 253.539062 10.957031 250.652344 C 9.925781 247.761719 8.960938 244.847656 8.070312 241.914062 C 7.179688 238.976562 6.363281 236.019531 5.617188 233.042969 C 4.871094 230.066406 4.199219 227.074219 3.601562 224.066406 C 3.003906 221.054688 2.476562 218.035156 2.027344 215 C 1.578125 211.964844 1.203125 208.917969 0.902344 205.863281 C 0.601562 202.8125 0.375 199.753906 0.222656 196.6875 C 0.0742188 193.621094 0 190.554688 0 187.488281 C 0 184.417969 0.0742188 181.351562 0.222656 178.289062 C 0.375 175.222656 0.601562 172.164062 0.902344 169.109375 C 1.203125 166.058594 1.578125 163.011719 2.027344 159.976562 C 2.476562 156.941406 3.003906 153.921875 3.601562 150.910156 C 4.199219 147.902344 4.871094 144.910156 5.617188 141.933594 C 6.363281 138.957031 7.179688 136 8.070312 133.0625 C 8.960938 130.128906 9.925781 127.214844 10.957031 124.324219 C 11.992188 121.4375 13.097656 118.574219 14.269531 115.738281 C 15.445312 112.90625 16.6875 110.101562 18 107.328125 C 19.3125 104.554688 20.691406 101.8125 22.136719 99.105469 C 23.582031 96.402344 25.09375 93.730469 26.671875 91.101562 C 28.25 88.46875 29.890625 85.875 31.597656 83.324219 C 33.300781 80.773438 35.066406 78.265625 36.894531 75.800781 C 38.722656 73.335938 40.609375 70.917969 42.554688 68.546875 C 44.503906 66.175781 46.507812 63.851562 48.566406 61.578125 C 50.628906 59.304688 52.742188 57.082031 54.914062 54.914062 C 57.082031 52.746094 59.304688 50.628906 61.578125 48.570312 C 63.851562 46.507812 66.171875 44.503906 68.546875 42.558594 C 70.917969 40.613281 73.335938 38.722656 75.800781 36.898438 C 78.265625 35.070312 80.773438 33.300781 83.324219 31.597656 C 85.875 29.894531 88.464844 28.25 91.097656 26.675781 C 93.730469 25.097656 96.398438 23.585938 99.105469 22.136719 C 101.8125 20.691406 104.550781 19.3125 107.324219 18 C 110.097656 16.6875 112.902344 15.445312 115.738281 14.273438 C 118.574219 13.097656 121.433594 11.992188 124.324219 10.960938 C 127.214844 9.925781 130.125 8.964844 133.0625 8.074219 C 136 7.183594 138.953125 6.363281 141.929688 5.617188 C 144.90625 4.875 147.898438 4.203125 150.910156 3.601562 C 153.917969 3.003906 156.941406 2.480469 159.976562 2.03125 C 163.011719 1.578125 166.054688 1.203125 169.109375 0.902344 C 172.164062 0.601562 175.222656 0.375 178.285156 0.226562 C 181.351562 0.0742188 184.417969 0 187.488281 0 C 190.554688 0 193.621094 0.0742188 196.6875 0.226562 C 199.75 0.375 202.808594 0.601562 205.863281 0.902344 C 208.917969 1.203125 211.960938 1.578125 214.996094 2.03125 C 218.03125 2.480469 221.054688 3.003906 224.0625 3.601562 C 227.074219 4.203125 230.066406 4.875 233.042969 5.617188 C 236.019531 6.363281 238.976562 7.183594 241.910156 8.074219 C 244.847656 8.964844 247.761719 9.925781 250.648438 10.960938 C 253.539062 11.992188 256.398438 13.097656 259.234375 14.273438 C 262.070312 15.445312 264.875 16.6875 267.648438 18 C 270.421875 19.3125 273.160156 20.691406 275.867188 22.136719 C 278.574219 23.585938 281.242188 25.097656 283.875 26.675781 C 286.507812 28.25 289.097656 29.894531 291.648438 31.597656 C 294.199219 33.300781 296.707031 35.070312 299.171875 36.894531 C 301.636719 38.722656 304.054688 40.613281 306.429688 42.558594 C 308.800781 44.503906 311.121094 46.507812 313.394531 48.570312 C 315.667969 50.628906 317.890625 52.746094 320.0625 54.914062 C 322.230469 57.082031 324.34375 59.304688 326.40625 61.578125 C 328.464844 63.851562 330.46875 66.175781 332.417969 68.546875 C 334.363281 70.917969 336.25 73.335938 338.078125 75.800781 C 339.90625 78.265625 341.671875 80.773438 343.378906 83.324219 C 345.082031 85.875 346.722656 88.46875 348.300781 91.101562 C 349.878906 93.730469 351.390625 96.402344 352.835938 99.105469 C 354.28125 101.8125 355.660156 104.554688 356.972656 107.328125 C 358.285156 110.101562 359.527344 112.90625 360.703125 115.738281 C 361.878906 118.574219 362.980469 121.4375 364.015625 124.324219 C 365.046875 127.214844 366.011719 130.125 366.902344 133.0625 C 367.792969 136 368.609375 138.957031 369.355469 141.933594 C 370.101562 144.910156 370.773438 147.902344 371.371094 150.910156 C 371.96875 153.921875 372.496094 156.941406 372.945312 159.976562 C 373.394531 163.011719 373.769531 166.058594 374.070312 169.109375 C 374.371094 172.164062 374.597656 175.222656 374.75 178.289062 C 374.898438 181.351562 374.972656 184.417969 374.972656 187.488281 Z M 374.972656 187.488281 " fill-opacity="1" fill-rule="nonzero"/><path fill="#000000" d="M 218.074219 59.632812 C 216.894531 60.101562 216.050781 60.914062 215.546875 62.082031 C 215.429688 62.355469 215.335938 62.640625 215.273438 62.9375 C 215.207031 63.230469 215.175781 63.527344 215.167969 63.832031 C 215.164062 64.132812 215.1875 64.429688 215.242188 64.726562 C 215.296875 65.023438 215.378906 65.3125 215.488281 65.59375 C 215.597656 65.871094 215.734375 66.140625 215.898438 66.390625 C 216.0625 66.644531 216.246094 66.882812 216.457031 67.097656 C 216.664062 67.3125 216.894531 67.507812 217.140625 67.679688 C 217.390625 67.851562 217.652344 68 217.925781 68.117188 C 237.671875 76.691406 255.628906 88.90625 270.851562 104.128906 C 286.070312 119.347656 298.289062 137.300781 306.859375 157.046875 C 306.980469 157.320312 307.125 157.582031 307.296875 157.832031 C 307.46875 158.078125 307.664062 158.308594 307.882812 158.515625 C 308.097656 158.726562 308.332031 158.910156 308.585938 159.074219 C 308.839844 159.238281 309.105469 159.375 309.386719 159.484375 C 309.667969 159.59375 309.957031 159.675781 310.253906 159.730469 C 310.546875 159.785156 310.847656 159.808594 311.148438 159.804688 C 311.449219 159.796875 311.746094 159.765625 312.042969 159.699219 C 312.335938 159.636719 312.621094 159.542969 312.898438 159.425781 C 313.175781 159.304688 313.4375 159.15625 313.683594 158.984375 C 313.933594 158.8125 314.160156 158.621094 314.371094 158.402344 C 314.578125 158.1875 314.765625 157.953125 314.929688 157.699219 C 315.089844 157.445312 315.226562 157.179688 315.335938 156.898438 C 315.449219 156.617188 315.53125 156.328125 315.582031 156.03125 C 315.636719 155.734375 315.660156 155.4375 315.65625 155.136719 C 315.652344 154.835938 315.617188 154.535156 315.554688 154.242188 C 315.488281 153.949219 315.398438 153.664062 315.277344 153.386719 C 306.246094 132.582031 293.378906 113.671875 277.34375 97.636719 C 261.304688 81.601562 242.390625 68.726562 221.585938 59.695312 C 220.425781 59.191406 219.253906 59.171875 218.074219 59.632812 Z M 209.132812 98.742188 C 208.859375 98.613281 208.574219 98.511719 208.285156 98.441406 C 207.992188 98.367188 207.695312 98.324219 207.394531 98.3125 C 207.09375 98.296875 206.792969 98.3125 206.496094 98.355469 C 206.195312 98.402344 205.90625 98.476562 205.621094 98.578125 C 205.339844 98.679688 205.066406 98.808594 204.808594 98.964844 C 204.550781 99.121094 204.3125 99.300781 204.089844 99.503906 C 203.867188 99.707031 203.664062 99.929688 203.484375 100.171875 C 203.308594 100.414062 203.152344 100.671875 203.027344 100.945312 C 202.898438 101.214844 202.796875 101.5 202.726562 101.792969 C 202.652344 102.082031 202.609375 102.378906 202.59375 102.683594 C 202.582031 102.984375 202.597656 103.28125 202.640625 103.582031 C 202.6875 103.878906 202.761719 104.167969 202.863281 104.453125 C 202.964844 104.734375 203.09375 105.007812 203.25 105.265625 C 203.40625 105.523438 203.585938 105.761719 203.785156 105.984375 C 203.988281 106.207031 204.210938 106.410156 204.453125 106.589844 C 204.699219 106.765625 204.957031 106.921875 205.226562 107.050781 C 218.546875 113.300781 231.023438 121.925781 242.039062 132.941406 C 253.050781 143.957031 261.671875 156.429688 267.921875 169.746094 C 268.050781 170.015625 268.203125 170.277344 268.382812 170.519531 C 268.5625 170.761719 268.761719 170.984375 268.984375 171.1875 C 269.207031 171.390625 269.449219 171.570312 269.707031 171.726562 C 269.964844 171.882812 270.234375 172.011719 270.519531 172.113281 C 270.800781 172.214844 271.09375 172.289062 271.390625 172.335938 C 271.6875 172.382812 271.988281 172.398438 272.289062 172.382812 C 272.589844 172.371094 272.886719 172.328125 273.179688 172.253906 C 273.472656 172.183594 273.757812 172.082031 274.027344 171.953125 C 274.300781 171.824219 274.558594 171.671875 274.800781 171.492188 C 275.046875 171.316406 275.269531 171.113281 275.472656 170.890625 C 275.675781 170.667969 275.855469 170.429688 276.011719 170.171875 C 276.167969 169.914062 276.296875 169.640625 276.398438 169.359375 C 276.5 169.074219 276.574219 168.785156 276.621094 168.484375 C 276.664062 168.1875 276.679688 167.886719 276.667969 167.585938 C 276.652344 167.285156 276.609375 166.988281 276.539062 166.695312 C 276.464844 166.402344 276.367188 166.121094 276.238281 165.847656 C 269.554688 151.617188 260.332031 138.277344 248.597656 126.523438 C 248.59375 126.519531 248.59375 126.515625 248.589844 126.511719 L 248.582031 126.511719 C 248.5625 126.488281 248.546875 126.46875 248.527344 126.449219 C 236.757812 114.675781 223.390625 105.4375 209.128906 98.742188 Z M 196.804688 138.1875 C 196.539062 138.042969 196.261719 137.925781 195.976562 137.839844 C 195.6875 137.75 195.394531 137.691406 195.09375 137.660156 C 194.792969 137.628906 194.492188 137.625 194.191406 137.65625 C 193.894531 137.683594 193.597656 137.738281 193.308594 137.828125 C 193.019531 137.914062 192.742188 138.027344 192.476562 138.167969 C 192.210938 138.308594 191.960938 138.472656 191.726562 138.664062 C 191.492188 138.855469 191.28125 139.066406 191.085938 139.296875 C 190.894531 139.53125 190.726562 139.777344 190.585938 140.042969 C 190.441406 140.308594 190.324219 140.585938 190.234375 140.875 C 190.148438 141.160156 190.085938 141.457031 190.054688 141.753906 C 190.023438 142.054688 190.023438 142.355469 190.050781 142.65625 C 190.082031 142.953125 190.136719 143.25 190.222656 143.539062 C 190.308594 143.828125 190.421875 144.105469 190.566406 144.371094 C 190.707031 144.636719 190.871094 144.886719 191.0625 145.121094 C 191.25 145.355469 191.460938 145.570312 191.695312 145.761719 C 191.925781 145.953125 192.175781 146.121094 192.441406 146.265625 C 200.082031 150.394531 207.082031 155.613281 213.222656 161.753906 C 219.382812 167.914062 224.613281 174.933594 228.75 182.597656 C 228.890625 182.863281 229.058594 183.113281 229.25 183.34375 C 229.445312 183.574219 229.65625 183.785156 229.890625 183.976562 C 230.125 184.167969 230.375 184.332031 230.640625 184.472656 C 230.90625 184.613281 231.183594 184.726562 231.472656 184.8125 C 231.761719 184.898438 232.054688 184.957031 232.355469 184.984375 C 232.652344 185.011719 232.953125 185.011719 233.253906 184.980469 C 233.550781 184.949219 233.847656 184.890625 234.132812 184.804688 C 234.421875 184.714844 234.699219 184.597656 234.960938 184.457031 C 235.226562 184.3125 235.476562 184.144531 235.710938 183.953125 C 235.941406 183.761719 236.152344 183.546875 236.34375 183.316406 C 236.535156 183.082031 236.699219 182.832031 236.84375 182.566406 C 236.984375 182.296875 237.097656 182.019531 237.183594 181.730469 C 237.269531 181.441406 237.328125 181.148438 237.355469 180.847656 C 237.382812 180.546875 237.382812 180.246094 237.351562 179.949219 C 237.324219 179.648438 237.261719 179.355469 237.175781 179.066406 C 237.085938 178.777344 236.96875 178.5 236.828125 178.234375 C 232.265625 169.789062 226.496094 162.050781 219.710938 155.261719 C 212.941406 148.492188 205.226562 142.742188 196.804688 138.1875 Z M 196.804688 138.1875 " fill-opacity="1" fill-rule="nonzero"/><path fill="#e6e6e6" d="M 139.992188 131.734375 C 158.566406 120.570312 158.566406 95.101562 142.855469 79.390625 C 127.148438 63.679688 101.675781 63.679688 87.410156 80.832031 C 47.289062 123.835938 59.230469 203.160156 115.523438 259.453125 C 171.816406 315.746094 251.140625 327.6875 294.144531 287.566406 C 311.292969 273.296875 311.292969 247.828125 295.585938 232.117188 C 279.875 216.410156 254.402344 216.410156 243.242188 234.984375 C 225.328125 260.304688 182.351562 253.738281 151.792969 223.183594 C 121.234375 192.625 114.667969 149.648438 139.992188 131.734375 Z M 139.992188 131.734375 " fill-opacity="1" fill-rule="nonzero"/></svg>