<svg xmlns="http://www.w3.org/2000/svg" xmlns:xlink="http://www.w3.org/1999/xlink" width="500" zoomAndPan="magnify" viewBox="0 0 375 374.999991" height="500" preserveAspectRatio="xMidYMid meet" version="1.0"><defs><clipPath id="0e9bc9d43c"><path d="M 76 19 L 367.628906 19 L 367.628906 294 L 76 294 Z M 76 19 " clip-rule="nonzero"/></clipPath><clipPath id="d9814a2155"><path d="M 7.628906 42 L 322 42 L 322 356.25 L 7.628906 356.25 Z M 7.628906 42 " clip-rule="nonzero"/></clipPath></defs><g clip-path="url(#0e9bc9d43c)"><path fill="#0c0015" d="M 76.90625 177.660156 C 77.292969 173.199219 79.15625 169.253906 81.898438 165.660156 C 91.546875 152.988281 113.175781 147.179688 128.304688 156.527344 C 137.21875 162.035156 144.367188 169.121094 150.3125 177.503906 C 155.253906 184.46875 159.71875 191.773438 164.523438 199.128906 C 167.878906 194.371094 171.265625 189.484375 174.734375 184.652344 C 204.539062 143.183594 237.265625 104.253906 275.226562 69.929688 C 298.511719 48.882812 325.230469 33.242188 353.980469 20.875 C 358.949219 18.734375 363.089844 19.570312 367.355469 23.875 C 365.40625 25.691406 363.460938 27.492188 361.535156 29.308594 C 336.425781 53 311.863281 77.238281 289.5625 103.597656 C 276.804688 118.671875 264.972656 134.535156 252.796875 150.105469 C 228.28125 181.457031 209.9375 216.726562 189.101562 250.417969 C 181.0625 263.425781 173.09375 276.484375 165.039062 289.484375 C 161.839844 294.652344 157.625 294.578125 154.414062 289.300781 C 143.996094 272.160156 135.773438 253.949219 128.011719 235.5 C 121.53125 220.09375 114.246094 205.066406 105 191.066406 C 100.421875 184.144531 95.03125 178.453125 86.167969 177.695312 C 83.175781 177.445312 80.136719 177.660156 76.90625 177.660156 Z M 76.90625 177.660156 " fill-opacity="1" fill-rule="nonzero"/></g><g clip-path="url(#d9814a2155)"><path fill="#0c0015" d="M 302.351562 124.015625 L 277.929688 148.421875 C 284.988281 163.980469 288.898438 181.257812 288.898438 199.453125 C 288.898438 267.972656 233.324219 323.507812 164.753906 323.507812 C 96.179688 323.507812 40.605469 267.972656 40.605469 199.453125 C 40.605469 130.929688 96.179688 75.398438 164.753906 75.398438 C 181.898438 75.398438 198.214844 78.871094 213.058594 85.144531 L 237.660156 60.5625 C 215.878906 49.117188 191.066406 42.644531 164.753906 42.644531 C 78.085938 42.644531 7.828125 112.851562 7.828125 199.453125 C 7.828125 286.054688 78.085938 356.25 164.753906 356.25 C 251.417969 356.25 321.675781 286.046875 321.675781 199.445312 C 321.675781 172.109375 314.671875 146.394531 302.351562 124.015625 Z M 302.351562 124.015625 " fill-opacity="1" fill-rule="nonzero"/></g></svg>